<mxfile host="65bd71144e">
    <diagram id="DgKGEXnMl8yqM84_8BIy" name="Page-1">
        <mxGraphModel dx="1653" dy="603" grid="0" gridSize="10" guides="1" tooltips="1" connect="1" arrows="1" fold="1" page="0" pageScale="1" pageWidth="827" pageHeight="1169" math="0" shadow="0">
            <root>
                <mxCell id="0"/>
                <mxCell id="1" parent="0"/>
                <mxCell id="2" value="&lt;font style=&quot;font-size: 36px;&quot;&gt;Activation Functions&lt;/font&gt;" style="text;html=1;align=center;verticalAlign=middle;resizable=0;points=[];autosize=1;strokeColor=none;fillColor=none;" vertex="1" parent="1">
                    <mxGeometry x="38" y="42" width="340" height="55" as="geometry"/>
                </mxCell>
                <mxCell id="3" value="&lt;font style=&quot;font-size: 18px;&quot;&gt;Function that applies non-linear transformation&amp;nbsp;&lt;br&gt;on the output. It helps to decide whether a&amp;nbsp;&lt;br&gt;neuron is activated or not&lt;/font&gt;" style="text;html=1;align=center;verticalAlign=middle;resizable=0;points=[];autosize=1;strokeColor=none;fillColor=none;fontSize=36;" vertex="1" parent="1">
                    <mxGeometry x="15" y="87" width="394" height="142" as="geometry"/>
                </mxCell>
                <mxCell id="4" value="&lt;font style=&quot;font-size: 24px;&quot;&gt;Why not Linear?&lt;/font&gt;" style="text;html=1;align=center;verticalAlign=middle;resizable=0;points=[];autosize=1;strokeColor=none;fillColor=none;fontSize=18;" vertex="1" parent="1">
                    <mxGeometry x="-137" y="297" width="193" height="41" as="geometry"/>
                </mxCell>
                <mxCell id="11" style="edgeStyle=none;html=1;fontSize=18;" edge="1" parent="1" source="5">
                    <mxGeometry relative="1" as="geometry">
                        <mxPoint x="94" y="420" as="targetPoint"/>
                    </mxGeometry>
                </mxCell>
                <mxCell id="5" value="w^t * x" style="ellipse;whiteSpace=wrap;html=1;fontSize=18;" vertex="1" parent="1">
                    <mxGeometry x="-86" y="380" width="80" height="80" as="geometry"/>
                </mxCell>
                <mxCell id="10" style="edgeStyle=none;html=1;fontSize=18;" edge="1" parent="1" source="7" target="5">
                    <mxGeometry relative="1" as="geometry"/>
                </mxCell>
                <mxCell id="7" value="x" style="text;html=1;align=center;verticalAlign=middle;resizable=0;points=[];autosize=1;strokeColor=none;fillColor=none;fontSize=18;" vertex="1" parent="1">
                    <mxGeometry x="-192" y="350" width="27" height="34" as="geometry"/>
                </mxCell>
                <mxCell id="9" style="edgeStyle=none;html=1;fontSize=18;" edge="1" parent="1" source="8" target="5">
                    <mxGeometry relative="1" as="geometry"/>
                </mxCell>
                <mxCell id="8" value="w" style="text;html=1;align=center;verticalAlign=middle;resizable=0;points=[];autosize=1;strokeColor=none;fillColor=none;fontSize=18;" vertex="1" parent="1">
                    <mxGeometry x="-207" y="445" width="31" height="34" as="geometry"/>
                </mxCell>
                <mxCell id="12" value="y" style="text;html=1;align=center;verticalAlign=middle;resizable=0;points=[];autosize=1;strokeColor=none;fillColor=none;fontSize=18;" vertex="1" parent="1">
                    <mxGeometry x="25" y="386" width="27" height="34" as="geometry"/>
                </mxCell>
                <mxCell id="13" value="&lt;font style=&quot;font-size: 24px;&quot;&gt;Linear will not&amp;nbsp;&lt;br&gt;learn when multiple&lt;br&gt;layer present&lt;br&gt;&lt;/font&gt;" style="text;html=1;align=center;verticalAlign=middle;resizable=0;points=[];autosize=1;strokeColor=none;fillColor=none;fontSize=18;" vertex="1" parent="1">
                    <mxGeometry x="-153" y="508" width="225" height="98" as="geometry"/>
                </mxCell>
                <mxCell id="14" style="edgeStyle=none;html=1;fontSize=18;entryX=0.087;entryY=0.254;entryDx=0;entryDy=0;entryPerimeter=0;" edge="1" source="15" parent="1" target="26">
                    <mxGeometry relative="1" as="geometry">
                        <mxPoint x="74" y="667.61" as="targetPoint"/>
                    </mxGeometry>
                </mxCell>
                <mxCell id="15" value="w^t * x" style="ellipse;whiteSpace=wrap;html=1;fontSize=18;" vertex="1" parent="1">
                    <mxGeometry x="-106" y="627.61" width="80" height="80" as="geometry"/>
                </mxCell>
                <mxCell id="16" style="edgeStyle=none;html=1;fontSize=18;" edge="1" target="15" parent="1">
                    <mxGeometry relative="1" as="geometry">
                        <mxPoint x="-185" y="620.0020396040951" as="sourcePoint"/>
                    </mxGeometry>
                </mxCell>
                <mxCell id="17" style="edgeStyle=none;html=1;fontSize=18;" edge="1" source="18" target="15" parent="1">
                    <mxGeometry relative="1" as="geometry"/>
                </mxCell>
                <mxCell id="18" value="w" style="text;html=1;align=center;verticalAlign=middle;resizable=0;points=[];autosize=1;strokeColor=none;fillColor=none;fontSize=18;" vertex="1" parent="1">
                    <mxGeometry x="-227" y="692.61" width="31" height="34" as="geometry"/>
                </mxCell>
                <mxCell id="19" value="y" style="text;html=1;align=center;verticalAlign=middle;resizable=0;points=[];autosize=1;strokeColor=none;fillColor=none;fontSize=18;" vertex="1" parent="1">
                    <mxGeometry x="177" y="746" width="27" height="34" as="geometry"/>
                </mxCell>
                <mxCell id="20" value="x" style="text;html=1;align=center;verticalAlign=middle;resizable=0;points=[];autosize=1;strokeColor=none;fillColor=none;fontSize=18;" vertex="1" parent="1">
                    <mxGeometry x="-214" y="599.61" width="27" height="34" as="geometry"/>
                </mxCell>
                <mxCell id="27" style="edgeStyle=none;html=1;entryX=0;entryY=1;entryDx=0;entryDy=0;fontSize=24;" edge="1" parent="1" source="21" target="26">
                    <mxGeometry relative="1" as="geometry"/>
                </mxCell>
                <mxCell id="21" value="w^t * x" style="ellipse;whiteSpace=wrap;html=1;fontSize=18;" vertex="1" parent="1">
                    <mxGeometry x="-102" y="795" width="80" height="80" as="geometry"/>
                </mxCell>
                <mxCell id="22" style="edgeStyle=none;html=1;fontSize=18;" edge="1" target="21" parent="1">
                    <mxGeometry relative="1" as="geometry">
                        <mxPoint x="-181" y="787.392039604095" as="sourcePoint"/>
                    </mxGeometry>
                </mxCell>
                <mxCell id="23" style="edgeStyle=none;html=1;fontSize=18;" edge="1" source="24" target="21" parent="1">
                    <mxGeometry relative="1" as="geometry"/>
                </mxCell>
                <mxCell id="24" value="w" style="text;html=1;align=center;verticalAlign=middle;resizable=0;points=[];autosize=1;strokeColor=none;fillColor=none;fontSize=18;" vertex="1" parent="1">
                    <mxGeometry x="-223" y="860" width="31" height="34" as="geometry"/>
                </mxCell>
                <mxCell id="25" value="x" style="text;html=1;align=center;verticalAlign=middle;resizable=0;points=[];autosize=1;strokeColor=none;fillColor=none;fontSize=18;" vertex="1" parent="1">
                    <mxGeometry x="-210" y="767" width="27" height="34" as="geometry"/>
                </mxCell>
                <mxCell id="28" style="edgeStyle=none;html=1;fontSize=24;" edge="1" parent="1" source="26" target="19">
                    <mxGeometry relative="1" as="geometry"/>
                </mxCell>
                <mxCell id="26" value="w^t * x" style="ellipse;whiteSpace=wrap;html=1;fontSize=18;" vertex="1" parent="1">
                    <mxGeometry x="15" y="723" width="80" height="80" as="geometry"/>
                </mxCell>
                <mxCell id="29" value="&lt;font style=&quot;font-size: 24px;&quot;&gt;Its basically linear regression&lt;br&gt;&lt;/font&gt;" style="text;html=1;align=center;verticalAlign=middle;resizable=0;points=[];autosize=1;strokeColor=none;fillColor=none;fontSize=18;" vertex="1" parent="1">
                    <mxGeometry x="-205" y="927" width="326" height="41" as="geometry"/>
                </mxCell>
                <mxCell id="30" value="&lt;font style=&quot;font-size: 24px;&quot;&gt;Non - Linear will&amp;nbsp;learn better&lt;br&gt;&lt;/font&gt;" style="text;html=1;align=center;verticalAlign=middle;resizable=0;points=[];autosize=1;strokeColor=none;fillColor=none;fontSize=18;" vertex="1" parent="1">
                    <mxGeometry x="302" y="320" width="318" height="41" as="geometry"/>
                </mxCell>
                <mxCell id="31" style="edgeStyle=none;html=1;fontSize=18;entryX=0.087;entryY=0.254;entryDx=0;entryDy=0;entryPerimeter=0;" edge="1" source="32" target="45" parent="1">
                    <mxGeometry relative="1" as="geometry">
                        <mxPoint x="575" y="450.61" as="targetPoint"/>
                    </mxGeometry>
                </mxCell>
                <mxCell id="32" value="f(w^t * x)" style="ellipse;whiteSpace=wrap;html=1;fontSize=18;" vertex="1" parent="1">
                    <mxGeometry x="395" y="410.61" width="80" height="80" as="geometry"/>
                </mxCell>
                <mxCell id="33" style="edgeStyle=none;html=1;fontSize=18;" edge="1" target="32" parent="1">
                    <mxGeometry relative="1" as="geometry">
                        <mxPoint x="316" y="403.002039604095" as="sourcePoint"/>
                    </mxGeometry>
                </mxCell>
                <mxCell id="34" style="edgeStyle=none;html=1;fontSize=18;" edge="1" source="35" target="32" parent="1">
                    <mxGeometry relative="1" as="geometry"/>
                </mxCell>
                <mxCell id="35" value="w" style="text;html=1;align=center;verticalAlign=middle;resizable=0;points=[];autosize=1;strokeColor=none;fillColor=none;fontSize=18;" vertex="1" parent="1">
                    <mxGeometry x="274" y="475.61" width="31" height="34" as="geometry"/>
                </mxCell>
                <mxCell id="36" value="y" style="text;html=1;align=center;verticalAlign=middle;resizable=0;points=[];autosize=1;strokeColor=none;fillColor=none;fontSize=18;" vertex="1" parent="1">
                    <mxGeometry x="678" y="529" width="27" height="34" as="geometry"/>
                </mxCell>
                <mxCell id="37" value="x" style="text;html=1;align=center;verticalAlign=middle;resizable=0;points=[];autosize=1;strokeColor=none;fillColor=none;fontSize=18;" vertex="1" parent="1">
                    <mxGeometry x="287" y="382.61" width="27" height="34" as="geometry"/>
                </mxCell>
                <mxCell id="38" style="edgeStyle=none;html=1;entryX=0;entryY=1;entryDx=0;entryDy=0;fontSize=24;" edge="1" source="39" target="45" parent="1">
                    <mxGeometry relative="1" as="geometry"/>
                </mxCell>
                <mxCell id="39" value="f(w^t * x)" style="ellipse;whiteSpace=wrap;html=1;fontSize=18;" vertex="1" parent="1">
                    <mxGeometry x="399" y="578" width="80" height="80" as="geometry"/>
                </mxCell>
                <mxCell id="40" style="edgeStyle=none;html=1;fontSize=18;" edge="1" target="39" parent="1">
                    <mxGeometry relative="1" as="geometry">
                        <mxPoint x="320" y="570.3920396040949" as="sourcePoint"/>
                    </mxGeometry>
                </mxCell>
                <mxCell id="41" style="edgeStyle=none;html=1;fontSize=18;" edge="1" source="42" target="39" parent="1">
                    <mxGeometry relative="1" as="geometry"/>
                </mxCell>
                <mxCell id="42" value="w" style="text;html=1;align=center;verticalAlign=middle;resizable=0;points=[];autosize=1;strokeColor=none;fillColor=none;fontSize=18;" vertex="1" parent="1">
                    <mxGeometry x="278" y="643" width="31" height="34" as="geometry"/>
                </mxCell>
                <mxCell id="43" value="x" style="text;html=1;align=center;verticalAlign=middle;resizable=0;points=[];autosize=1;strokeColor=none;fillColor=none;fontSize=18;" vertex="1" parent="1">
                    <mxGeometry x="291" y="550" width="27" height="34" as="geometry"/>
                </mxCell>
                <mxCell id="44" style="edgeStyle=none;html=1;fontSize=24;" edge="1" source="45" target="36" parent="1">
                    <mxGeometry relative="1" as="geometry"/>
                </mxCell>
                <mxCell id="45" value="f(w^t * x)" style="ellipse;whiteSpace=wrap;html=1;fontSize=18;" vertex="1" parent="1">
                    <mxGeometry x="516" y="506" width="80" height="80" as="geometry"/>
                </mxCell>
                <mxCell id="46" value="&lt;div style=&quot;text-align: left;&quot;&gt;&lt;span style=&quot;font-size: 24px; background-color: initial;&quot;&gt;Types of Activation Functions&lt;/span&gt;&lt;/div&gt;&lt;font style=&quot;&quot;&gt;&lt;div style=&quot;text-align: left;&quot;&gt;&lt;span style=&quot;font-size: 24px;&quot;&gt;&lt;br&gt;&lt;/span&gt;&lt;/div&gt;&lt;span style=&quot;font-size: 24px;&quot;&gt;&lt;div style=&quot;text-align: left;&quot;&gt;&lt;span style=&quot;background-color: initial;&quot;&gt;1 - Step Function&lt;/span&gt;&lt;/div&gt;&lt;/span&gt;&lt;span style=&quot;font-size: 24px;&quot;&gt;&lt;div style=&quot;text-align: left;&quot;&gt;&lt;span style=&quot;background-color: initial;&quot;&gt;2 - Sigmoid (Used for single class classification)&lt;/span&gt;&lt;/div&gt;&lt;/span&gt;&lt;span style=&quot;font-size: 24px;&quot;&gt;&lt;div style=&quot;text-align: left;&quot;&gt;&lt;span style=&quot;background-color: initial;&quot;&gt;3 - TanH (Hyperbolic Tan, hidden layer candidate)&lt;/span&gt;&lt;/div&gt;&lt;/span&gt;&lt;span style=&quot;font-size: 24px;&quot;&gt;&lt;div style=&quot;text-align: left;&quot;&gt;&lt;span style=&quot;background-color: initial;&quot;&gt;4 - ReLU (Used as hidden layers)&lt;/span&gt;&lt;/div&gt;&lt;/span&gt;&lt;span style=&quot;font-size: 24px;&quot;&gt;&lt;div style=&quot;text-align: left;&quot;&gt;&lt;span style=&quot;background-color: initial;&quot;&gt;5 - Leaky ReLU (helps overcome vanishing grad issue)&lt;/span&gt;&lt;/div&gt;&lt;/span&gt;&lt;span style=&quot;font-size: 24px;&quot;&gt;&lt;div style=&quot;text-align: left;&quot;&gt;&lt;span style=&quot;background-color: initial;&quot;&gt;6- SoftMax (used for getting probabilities)&lt;/span&gt;&lt;/div&gt;&lt;/span&gt;&lt;/font&gt;" style="text;html=1;align=center;verticalAlign=middle;resizable=0;points=[];autosize=1;strokeColor=none;fillColor=none;fontSize=18;" vertex="1" parent="1">
                    <mxGeometry x="240" y="736" width="602" height="242" as="geometry"/>
                </mxCell>
            </root>
        </mxGraphModel>
    </diagram>
</mxfile>